<svg id="Layer_1" data-name="Layer 1" xmlns="http://www.w3.org/2000/svg" xmlns:xlink="http://www.w3.org/1999/xlink" viewBox="0 0 531.18 490.48"><defs><style>.cls-1,.cls-6,.cls-8{fill:none;}.cls-2{fill:#c1b861;}.cls-3{fill:#9b914b;}.cls-4{fill:#5b542a;}.cls-5{clip-path:url(#clip-path);}.cls-6{stroke:#f9c623;stroke-width:15px;}.cls-6,.cls-8{stroke-miterlimit:10;}.cls-7{fill:#abe7ef;opacity:0.59;}.cls-8{stroke:#42210b;stroke-width:3px;}</style><clipPath id="clip-path" transform="translate(0 0)"><ellipse class="cls-1" cx="266.58" cy="336.98" rx="84" ry="147.5"/></clipPath></defs><ellipse class="cls-2" cx="266.58" cy="117.98" rx="84" ry="41.5"/><ellipse class="cls-3" cx="266.58" cy="189.48" rx="84" ry="60"/><ellipse class="cls-4" cx="266.58" cy="336.98" rx="84" ry="147.5"/><g class="cls-5"><line class="cls-6" x1="155.58" y1="209.98" x2="361.58" y2="209.98"/><line class="cls-6" x1="155.58" y1="248.98" x2="361.58" y2="248.98"/><line class="cls-6" x1="155.58" y1="287.98" x2="361.58" y2="287.98"/><line class="cls-6" x1="155.58" y1="326.98" x2="361.58" y2="326.98"/><line class="cls-6" x1="155.58" y1="365.98" x2="361.58" y2="365.98"/><line class="cls-6" x1="155.58" y1="404.98" x2="361.58" y2="404.98"/><line class="cls-6" x1="155.58" y1="443.98" x2="361.58" y2="443.98"/><line class="cls-6" x1="155.58" y1="482.98" x2="361.58" y2="482.98"/></g><path class="cls-7" d="M215.08,172l-205,208s-14,3-9,48,155.5,63.5,181.5-15.5,75-240,75-240Z" transform="translate(0 0)"/><path class="cls-7" d="M316.1,172l205,208s14,3,9,48-155.5,63.5-181.5-15.5-75-240-75-240Z" transform="translate(0 0)"/><line class="cls-8" x1="236.58" y1="80.48" x2="209.58" y2="0.48"/><line class="cls-8" x1="311.51" y1="82.18" x2="338.51" y2="2.18"/></svg>