<svg id="Layer_1" data-name="Layer 1" xmlns="http://www.w3.org/2000/svg" xmlns:xlink="http://www.w3.org/1999/xlink" viewBox="0 0 437.25 1119.84"><defs><style>.cls-1,.cls-11,.cls-18,.cls-19,.cls-3,.cls-6{fill:none;}.cls-2{fill:#e3e5ca;}.cls-2,.cls-3,.cls-4{stroke:#9a9b81;stroke-width:4px;}.cls-11,.cls-18,.cls-19,.cls-2,.cls-3,.cls-4,.cls-6{stroke-miterlimit:10;}.cls-4{fill:#9a9b81;}.cls-5{clip-path:url(#clip-path);}.cls-6{stroke:#42210b;stroke-width:0.43px;}.cls-7{fill:#c1b861;}.cls-8{fill:#9b914b;}.cls-9{fill:#5b542a;}.cls-10{clip-path:url(#clip-path-4);}.cls-11{stroke:#f9c623;stroke-width:2.15px;}.cls-12{opacity:0.36;}.cls-13{clip-path:url(#clip-path-6);}.cls-14{fill:#abe7ef;}.cls-15{clip-path:url(#clip-path-7);}.cls-16{clip-path:url(#clip-path-8);}.cls-17{clip-path:url(#clip-path-9);}.cls-18,.cls-19{stroke:#446c84;}.cls-19{stroke-dasharray:3.99 3;}</style><clipPath id="clip-path" transform="translate(0 -0.44)"><rect class="cls-1" x="106.59" y="395.87" width="95.5" height="90.5" transform="translate(-233.53 180.42) rotate(-36.81)"/></clipPath><clipPath id="clip-path-4" transform="translate(0 -0.44)"><path class="cls-1" d="M133.3,438.12c8.74,11.68,21.22,17.11,27.87,12.13s5-18.48-3.78-30.16S136.17,403,129.52,408s-5,18.49,3.78,30.17"/></clipPath><clipPath id="clip-path-6" transform="translate(0 -0.44)"><rect class="cls-1" x="104.39" y="420.02" width="46.49" height="52.6" transform="translate(-241.97 165.45) rotate(-36.81)"/></clipPath><clipPath id="clip-path-7" transform="translate(0 -0.44)"><rect class="cls-1" x="109.51" y="411.21" width="38.43" height="59.72" transform="translate(-238.6 165.06) rotate(-36.81)"/></clipPath><clipPath id="clip-path-8" transform="translate(0 -0.44)"><rect class="cls-1" x="143.62" y="390.66" width="46.49" height="52.6" transform="translate(-216.56 183.11) rotate(-36.81)"/></clipPath><clipPath id="clip-path-9" transform="translate(0 -0.44)"><rect class="cls-1" x="142.32" y="386.78" width="38.36" height="59.63" transform="translate(-217.41 179.82) rotate(-36.81)"/></clipPath></defs><polygon class="cls-2" points="435.25 1080.84 2.25 1080.84 2.25 647.84 218.75 528.84 435.25 647.84 435.25 1080.84"/><line class="cls-3" x1="2" y1="647.84" x2="435" y2="647.84"/><line class="cls-3" x1="59" y1="616.84" x2="379" y2="616.84"/><line class="cls-3" x1="115" y1="585.84" x2="325" y2="585.84"/><line class="cls-3" x1="171" y1="554.84" x2="266" y2="554.84"/><line class="cls-3" x1="2" y1="678.84" x2="435" y2="678.84"/><line class="cls-3" x1="2" y1="709.84" x2="435" y2="709.84"/><line class="cls-3" x1="2" y1="740.84" x2="435" y2="740.84"/><line class="cls-3" x1="2" y1="771.84" x2="435" y2="771.84"/><line class="cls-3" x1="2" y1="802.84" x2="435" y2="802.84"/><line class="cls-3" x1="2" y1="833.84" x2="435" y2="833.84"/><line class="cls-3" x1="2" y1="864.84" x2="435" y2="864.84"/><line class="cls-3" x1="2" y1="895.84" x2="435" y2="895.84"/><line class="cls-3" x1="2" y1="926.84" x2="435" y2="926.84"/><line class="cls-3" x1="2" y1="957.84" x2="435" y2="957.84"/><line class="cls-3" x1="2" y1="988.84" x2="435" y2="988.84"/><line class="cls-3" x1="2" y1="1019.84" x2="435" y2="1019.84"/><line class="cls-3" x1="2" y1="1050.84" x2="435" y2="1050.84"/><circle class="cls-4" cx="219" cy="585.84" r="19"/><rect class="cls-4" x="2" y="1080.84" width="37" height="37"/><rect class="cls-4" x="398" y="1080.84" width="37" height="37"/><g id="Artwork_5" data-name="Artwork 5"><g class="cls-5"><g class="cls-5"><g class="cls-5"><line class="cls-6" x1="178.13" y1="461.38" x2="190.58" y2="469.95"/><line class="cls-6" x1="167.45" y1="469.38" x2="172.17" y2="483.75"/><path class="cls-7" d="M156.8,469.52c-2.46-3.29.94-10,7.59-15s14-6.35,16.5-3.06-.94,10-7.59,15-14,6.35-16.5,3.07" transform="translate(0 -0.44)"/><path class="cls-8" d="M149.13,459.26c-3.56-4.75-1-12.63,5.6-17.61s14.93-5.16,18.49-.41,1,12.64-5.61,17.61-14.93,5.16-18.48.41" transform="translate(0 -0.44)"/><path class="cls-9" d="M133.3,438.12c-8.74-11.68-10.43-25.19-3.78-30.17s19.13.46,27.87,12.14,10.43,25.18,3.78,30.16S142,449.8,133.3,438.12" transform="translate(0 -0.44)"/></g><g class="cls-10"><line class="cls-11" x1="174.89" y1="434.96" x2="145.35" y2="457.06"/><line class="cls-11" x1="170.7" y1="429.37" x2="141.17" y2="451.47"/><line class="cls-11" x1="166.52" y1="423.77" x2="136.98" y2="445.88"/><line class="cls-11" x1="162.33" y1="418.18" x2="132.8" y2="440.29"/><line class="cls-11" x1="158.15" y1="412.59" x2="128.61" y2="434.69"/><line class="cls-11" x1="153.96" y1="407" x2="124.43" y2="429.1"/><line class="cls-11" x1="149.78" y1="401.41" x2="120.24" y2="423.51"/><line class="cls-11" x1="145.6" y1="395.82" x2="116.06" y2="417.92"/></g><g class="cls-5"><g class="cls-12"><g class="cls-13"><path class="cls-14" d="M155.85,458.06l-51.61-7.81s-4.24.15-6.44-5.92c-2.76-7.62,15.48-25.79,27.69-17.25S162,453.44,162,453.44Z" transform="translate(0 -0.44)"/></g></g><g class="cls-12"><g class="cls-15"><path class="cls-14" d="M155.85,458.06l-51.56-20s-5.67-1.92-5.28-7.32c.6-8.35,21-22.85,31.57-11.68S162,453.44,162,453.44Z" transform="translate(0 -0.44)"/></g></g><g class="cls-12"><g class="cls-16"><path class="cls-14" d="M170.13,447.37l7.1-51.74s1.34-4-3.86-7.85c-6.54-4.8-29.11,7.58-24.36,21.7s15,42.45,15,42.45Z" transform="translate(0 -0.44)"/></g></g><g class="cls-12"><g class="cls-17"><path class="cls-14" d="M170.13,447.37l-4.63-55s-.24-6-5.54-7.13c-8.17-1.78-27.84,13.72-20.1,27S164,452,164,452Z" transform="translate(0 -0.44)"/></g></g></g></g></g></g><path class="cls-18" d="M120.79,398.37l-1.34-1.48" transform="translate(0 -0.44)"/><path class="cls-19" d="M117.47,394.64c-27.1-31.39-43.1-73.6-36.83-114.5,6.52-42.55,40.22-81.47,82.83-87.56,31.8-4.55,63.41,8.48,91.62,23.84,26.78,14.58,53.09,32.36,69.12,58.29s19.36,61.72,1,86c-7.23,9.54-18.23,17-30.19,16.88C280,377.39,267.58,365.38,261,352a72.43,72.43,0,0,1-4.44-51.11c6.09-21.19,21.52-38.35,37.71-53.32s33.82-28.81,46.5-46.85,19.82-41.75,12.12-62.41c-9.62-25.78-43.58-39.06-68.14-26.65-7.57,3.84-14.33,10-17.15,18s-.91,17.94,5.82,23.11c7.7,5.91,19.59,3.89,26.55-2.88s9.52-17.06,9-26.75c-1.19-22.77-19.27-43.57-41.65-47.93-17.7-3.45-36,2.59-51.89,11s-30.56,19.32-47,26.76c-17.32,7.86-40.2,10.66-53.31-3.11C105.73,99.89,104.78,84,110,71.28s15.49-22.6,26.47-30.81C170,15.41,276.55,49.8,324.07,3.29" transform="translate(0 -0.44)"/><path class="cls-18" d="M325.12,2.23c.47-.47.93-1,1.38-1.45" transform="translate(0 -0.44)"/></svg>