<svg id="Layer_1" data-name="Layer 1" xmlns="http://www.w3.org/2000/svg" xmlns:xlink="http://www.w3.org/1999/xlink" viewBox="0 0 514.63 471.4"><defs><style>.cls-1,.cls-2,.cls-6{fill:none;}.cls-2{stroke:#42210b;stroke-width:3px;}.cls-2,.cls-6{stroke-miterlimit:10;}.cls-3{fill:#c1b861;}.cls-4{fill:#5b542a;}.cls-5{clip-path:url(#clip-path);}.cls-6{stroke:#f9c623;stroke-width:15px;}.cls-7{fill:#9b914b;}.cls-8{fill:#abe7ef;opacity:0.36;}.cls-9{fill:#42210b;}.cls-10{fill:#ecab49;}</style><clipPath id="clip-path" transform="translate(-7.97 -7.12)"><ellipse class="cls-1" cx="252.04" cy="323.46" rx="147.5" ry="84"/></clipPath></defs><line class="cls-2" x1="482.68" y1="282.46" x2="511.4" y2="203.06"/><path class="cls-3" d="M471,383.56c-28.47,0-51.56-26.91-51.56-60.1s23.09-60.1,51.56-60.1,51.56,26.91,51.56,60.1c0,17.55-8.7,54.92-19,65.9C494.43,399.16,484.46,383.56,471,383.56Z" transform="translate(-7.97 -7.12)"/><ellipse class="cls-4" cx="244.07" cy="316.34" rx="147.5" ry="84"/><g class="cls-5"><line class="cls-6" x1="371.07" y1="205.34" x2="371.07" y2="411.34"/><line class="cls-6" x1="332.07" y1="205.34" x2="332.07" y2="411.34"/><line class="cls-6" x1="293.07" y1="205.34" x2="293.07" y2="411.34"/><line class="cls-6" x1="254.07" y1="205.34" x2="254.07" y2="411.34"/><line class="cls-6" x1="215.07" y1="205.34" x2="215.07" y2="411.34"/><line class="cls-6" x1="176.07" y1="205.34" x2="176.07" y2="411.34"/><line class="cls-6" x1="137.07" y1="205.34" x2="137.07" y2="411.34"/><line class="cls-6" x1="98.07" y1="205.34" x2="98.07" y2="411.34"/></g><line class="cls-2" x1="478.2" y1="280.55" x2="489.18" y2="196.83"/><ellipse class="cls-7" cx="399.57" cy="316.34" rx="41.94" ry="55.1"/><path class="cls-8" d="M393.86,276.21,241.5,27.5S233.08,5.33,197.07,7.24c-45.22,2.4-99,135.71-28.52,179.92s215,130.41,215,130.41Z" transform="translate(-7.97 -7.12)"/><path class="cls-8" d="M393.86,276.21,179.23,54.85s-22.17-25-49.13-11.23c-41.62,21.22-71.78,157.76,8.62,187.77s244.89,86.27,244.89,86.27Z" transform="translate(-7.97 -7.12)"/><path class="cls-9" d="M276.46,348.33c20,38.5,16,89.16-10.49,123.71-1.86,2.22-3.77,4.39-5.73,6.48l-.63-.44c2.3-5.21,4.61-10.32,6.79-15.51,10.26-25.63,15.81-53.08,14.15-80.75a197.47,197.47,0,0,0-4.82-33.21l.73-.28Z" transform="translate(-7.97 -7.12)"/><path class="cls-9" d="M213.25,352c2.07,43.33-22.73,87.68-61.19,108-2.62,1.24-5.25,2.42-7.91,3.5l-.39-.67c4.26-3.77,8.5-7.45,12.64-11.26,20-19,36.54-41.63,46.58-67.46a196.28,196.28,0,0,0,9.49-32.19l.78.05Z" transform="translate(-7.97 -7.12)"/><path class="cls-9" d="M332.46,343.33c20,38.5,16,89.16-10.49,123.71-1.86,2.22-3.77,4.39-5.73,6.48l-.63-.44c2.3-5.21,4.61-10.32,6.79-15.51,10.26-25.63,15.81-53.08,14.15-80.75a197.47,197.47,0,0,0-4.82-33.21l.73-.28Z" transform="translate(-7.97 -7.12)"/><path class="cls-10" d="M236.45,390.56a16.4,16.4,0,0,0-4-5.86,29.67,29.67,0,0,0-5.78-3.88,31.85,31.85,0,0,1-6-4c-1.79-1.62-3.38-3.45-5.21-5-3.92-3.37-8.59-4.53-13.69-4.44a58.71,58.71,0,0,0-15,2,27.49,27.49,0,0,0-4.56,1.79,21.38,21.38,0,0,0-10.54,4.71,54.4,54.4,0,0,0-5.4,4.89,29.39,29.39,0,0,0-4.57,5.39c-2.49,4.23-1,9-2.17,13.46-.66,2.51-2.56,4-4.53,5.45s-4.08,3.23-6,5a64.49,64.49,0,0,0-10.2,11.68c-2.85,4.37-2.53,9.29-.05,13.77a37.12,37.12,0,0,0,4.6,6.14,69.45,69.45,0,0,1,4.94,6.4c2.64,3.92,5.62,7.23,10,9.16,8.42,3.7,17.8,2.19,25.92-1.5a188.57,188.57,0,0,0,28.38-16.42q6.6-4.54,12.84-9.57c3.91-3.16,7.87-6.49,10.31-11A29.12,29.12,0,0,0,239,404.67,37.35,37.35,0,0,0,236.45,390.56Z" transform="translate(-7.97 -7.12)"/><path class="cls-10" d="M111.76,398.07a1.15,1.15,0,0,0-.52-.34l0,0a4.15,4.15,0,0,0-1.51-1.49,3.71,3.71,0,0,0-2.45-.37,4.56,4.56,0,0,0-3.32,3,4.86,4.86,0,0,0,4.67,6.29,4.28,4.28,0,0,0,3.63-2.49,4.56,4.56,0,0,0,.47-2.18A4.13,4.13,0,0,0,111.76,398.07Z" transform="translate(-7.97 -7.12)"/><path class="cls-10" d="M80.29,369.34a1.5,1.5,0,0,0,0,3A1.5,1.5,0,0,0,80.29,369.34Z" transform="translate(-7.97 -7.12)"/><path class="cls-10" d="M61.12,394.26a1.5,1.5,0,0,0,0,3A1.5,1.5,0,0,0,61.12,394.26Z" transform="translate(-7.97 -7.12)"/><path class="cls-10" d="M84.12,428.13a1.5,1.5,0,0,0,0,3A1.5,1.5,0,0,0,84.12,428.13Z" transform="translate(-7.97 -7.12)"/><path class="cls-10" d="M43.79,421.17a1.55,1.55,0,0,0-.38-.43v-1a1.59,1.59,0,0,0-.44-1.1,3.22,3.22,0,0,0-.41-.32,2.72,2.72,0,0,0-.9-.41A3.83,3.83,0,0,0,38,419a3.35,3.35,0,0,0-.91,1.67,3.16,3.16,0,0,0,.36,2.21,3.65,3.65,0,0,0,3.1,1.67,3.89,3.89,0,0,0,1.92-.49,3.29,3.29,0,0,0,1.44-1.76A1.54,1.54,0,0,0,43.79,421.17Z" transform="translate(-7.97 -7.12)"/><path class="cls-10" d="M18.74,370a3.62,3.62,0,0,0-.06-.46,3.39,3.39,0,0,0-.2-.51c0-.05-.05-.1-.08-.14a2.79,2.79,0,0,0-.34-.43,2.23,2.23,0,0,0-.57-.44,2.52,2.52,0,0,0-.66-.26,2.32,2.32,0,0,0-1.11,0l-.07,0a3,3,0,0,0-.41.18l-.08,0-.32.24a.82.82,0,0,0-.25.35,2.58,2.58,0,0,0-.2.51,2.7,2.7,0,0,0,0,.28.25.25,0,0,1,0,.08l0,.06a1.48,1.48,0,0,0-.15,1.16,2.26,2.26,0,0,0,.52.9,2.21,2.21,0,0,0,.52.39,3.26,3.26,0,0,0,.48.2l.15,0,.41.05h0a2.33,2.33,0,0,0,.58.09h.22a1.08,1.08,0,0,0,.58-.13,1.14,1.14,0,0,0,.48-.31,1.11,1.11,0,0,0,.31-.48,1.18,1.18,0,0,0,.12-.49c0-.09.08-.17.11-.25l0-.08c0-.09,0-.19,0-.27a2.58,2.58,0,0,0,0-.29Z" transform="translate(-7.97 -7.12)"/><path class="cls-10" d="M13.33,399.83a1.56,1.56,0,0,0-.69-.9,1.52,1.52,0,0,0-1.16-.15l-.14.06a2.62,2.62,0,0,0-2.06.31,2.94,2.94,0,0,0-1,1A2.49,2.49,0,0,0,8,401.47a1.63,1.63,0,0,0,.44,1.06l.31.23a1.51,1.51,0,0,0,.75.21,3.83,3.83,0,0,0,1.12-.08,4.11,4.11,0,0,0,1-.38A3.89,3.89,0,0,0,13.18,401,1.59,1.59,0,0,0,13.33,399.83Z" transform="translate(-7.97 -7.12)"/><path class="cls-10" d="M142.85,396.55a1.48,1.48,0,0,0,.15-1.16,2.34,2.34,0,0,0-.27-.58,2.52,2.52,0,0,0-.69-.69,2.39,2.39,0,0,0-.58-.28l-.25-.07a4.76,4.76,0,0,0-.66-.07,3.76,3.76,0,0,0-.65.09,3.23,3.23,0,0,0-.59.22,1.38,1.38,0,0,0-.24.14,2.85,2.85,0,0,0-.38.31,1.5,1.5,0,0,0-.2.24,2.34,2.34,0,0,0-.39.71,2.25,2.25,0,0,0,0,1.31,2.53,2.53,0,0,0,.19.48l.07.13c.09.13.2.27.3.39a.52.52,0,0,0,.1.11,3.13,3.13,0,0,0,1.12.67,3.45,3.45,0,0,0,.7.13,2.76,2.76,0,0,0,.7-.06l.15,0a5.16,5.16,0,0,0,.49-.21,2.45,2.45,0,0,0,.41-.31l.13-.12a1.24,1.24,0,0,0,.31-.48,1.35,1.35,0,0,0,.1-.86Z" transform="translate(-7.97 -7.12)"/><path class="cls-10" d="M125.15,353.81a1,1,0,0,0-.27-.51,1.13,1.13,0,0,0-.42-.39l-.35-.15a1.55,1.55,0,0,0-.8,0l-.2.09a.58.58,0,0,0-.22-.08,1,1,0,0,0-.6,0,1.16,1.16,0,0,0-.56.18l-.3.23a1.59,1.59,0,0,0-.39.66l-.05.4a1.48,1.48,0,0,0,.21.76l0,0c.08.1.16.22.25.32l.07.07a2,2,0,0,0,.44.32,2.42,2.42,0,0,0,1.11.29,2.7,2.7,0,0,0,.57-.08,2.77,2.77,0,0,0,.53-.2l.08-.05,0,0,.33-.25A2.12,2.12,0,0,0,125,355a1.16,1.16,0,0,0,.18-.56A1.12,1.12,0,0,0,125.15,353.81Z" transform="translate(-7.97 -7.12)"/><path class="cls-10" d="M114.16,364.23a1.5,1.5,0,0,0,0,3A1.5,1.5,0,0,0,114.16,364.23Z" transform="translate(-7.97 -7.12)"/><path class="cls-10" d="M59.2,335.48a1.5,1.5,0,0,0,0,3A1.5,1.5,0,0,0,59.2,335.48Z" transform="translate(-7.97 -7.12)"/><path class="cls-10" d="M57.29,364.87h0a1.36,1.36,0,0,0-1.36.95,2.68,2.68,0,0,0-.07.27,1.45,1.45,0,0,0,1.43,1.78h0A1.5,1.5,0,0,0,57.29,364.87Z" transform="translate(-7.97 -7.12)"/><path class="cls-10" d="M30.45,447.94a1.5,1.5,0,0,0,0,3A1.5,1.5,0,0,0,30.45,447.94Z" transform="translate(-7.97 -7.12)"/><path class="cls-10" d="M134,447.3a1.5,1.5,0,0,0,0,3A1.5,1.5,0,0,0,134,447.3Z" transform="translate(-7.97 -7.12)"/></svg>