<svg id="Layer_1" data-name="Layer 1" xmlns="http://www.w3.org/2000/svg" viewBox="0 0 30 30"><defs><style>.cls-1{fill:#ff7bac;}.cls-2{fill:#f9c623;}</style></defs><path class="cls-1" d="M18.21,3.25c0,1.8-1.57,11.74-3.36,11.74S11.71,5.05,11.71,3.25a3.25,3.25,0,0,1,6.5,0Z" transform="translate(0)"/><path class="cls-1" d="M3.25,11.72C5.05,11.72,15,13.3,15,15.09S5.05,18.23,3.25,18.23a3.26,3.26,0,0,1,0-6.51Z" transform="translate(0)"/><path class="cls-1" d="M9.17,4.3c1.27,1.27,7.18,9.41,5.91,10.68S5.84,10.17,4.57,8.9a3.25,3.25,0,0,1,4.6-4.6Z" transform="translate(0)"/><path class="cls-1" d="M11.71,26.72c0-1.8,1.58-11.74,3.37-11.74s3.14,9.94,3.14,11.74a3.26,3.26,0,1,1-6.51,0Z" transform="translate(0)"/><path class="cls-1" d="M4.3,20.8c1.26-1.28,9.4-7.19,10.67-5.92S10.16,24.13,8.89,25.4A3.25,3.25,0,1,1,4.3,20.8Z" transform="translate(0)"/><path class="cls-1" d="M11.79,26.75C11.79,25,13.36,15,15.15,15S18.29,25,18.29,26.75a3.25,3.25,0,0,1-6.5,0Z" transform="translate(0)"/><path class="cls-1" d="M26.75,18.28C25,18.28,15,16.7,15,14.91S25,11.77,26.75,11.77a3.26,3.26,0,0,1,0,6.51Z" transform="translate(0)"/><path class="cls-1" d="M20.83,25.7c-1.27-1.27-7.18-9.41-5.91-10.68s9.24,4.81,10.51,6.08a3.25,3.25,0,0,1-4.6,4.6Z" transform="translate(0)"/><path class="cls-1" d="M25.7,9.2c-1.26,1.28-9.4,7.19-10.67,5.92S19.84,5.87,21.11,4.6A3.25,3.25,0,1,1,25.7,9.2Z" transform="translate(0)"/><circle class="cls-2" cx="14.85" cy="14.64" r="3.72"/></svg>