<svg id="Layer_1" data-name="Layer 1" xmlns="http://www.w3.org/2000/svg" xmlns:xlink="http://www.w3.org/1999/xlink" viewBox="0 0 260.37 480.5"><defs><style>.cls-1,.cls-11,.cls-16,.cls-2{fill:none;}.cls-2{stroke:#22b573;stroke-width:8px;}.cls-11,.cls-16,.cls-2,.cls-3,.cls-4,.cls-6,.cls-7,.cls-8,.cls-9{stroke-miterlimit:10;}.cls-3{fill:#fff;}.cls-3,.cls-4{stroke:#eaefb9;}.cls-3,.cls-6,.cls-7{stroke-width:2px;}.cls-4,.cls-9{fill:#ecab49;}.cls-5{fill:#22b573;}.cls-6{fill:#e298b6;stroke:#dd72a2;}.cls-7{fill:#ff7bac;stroke:#ce4db3;}.cls-8{fill:#f9c623;stroke:#c4971c;}.cls-9{stroke:#ecab49;}.cls-10{clip-path:url(#clip-path);}.cls-11{stroke:#42210b;stroke-width:0.51px;}.cls-12{fill:#c1b861;}.cls-13{fill:#9b914b;}.cls-14{fill:#5b542a;}.cls-15{clip-path:url(#clip-path-4);}.cls-16{stroke:#f9c623;stroke-width:2.57px;}.cls-17{opacity:0.36;}.cls-18{clip-path:url(#clip-path-6);}.cls-19{fill:#abe7ef;}.cls-20{clip-path:url(#clip-path-7);}.cls-21{clip-path:url(#clip-path-8);}.cls-22{clip-path:url(#clip-path-9);}</style><clipPath id="clip-path"><rect class="cls-1" x="50.14" y="79.9" width="122.58" height="129.34" transform="translate(-69.59 121.13) rotate(-45)"/></clipPath><clipPath id="clip-path-4"><path class="cls-1" d="M111.46,173.35c14-14,18.85-31.75,10.89-39.7s-25.73-3.08-39.7,10.89-18.85,31.74-10.89,39.7,25.73,3.08,39.7-10.89"/></clipPath><clipPath id="clip-path-6"><rect class="cls-1" x="87.94" y="147.88" width="71.24" height="62.96" transform="translate(-90.64 139.9) rotate(-45)"/></clipPath><clipPath id="clip-path-7"><rect class="cls-1" x="75.86" y="152.89" width="80.88" height="52.05" transform="translate(-92.45 134.64) rotate(-45)"/></clipPath><clipPath id="clip-path-8"><rect class="cls-1" x="41.01" y="100.95" width="71.24" height="62.96" transform="translate(-71.2 92.97) rotate(-45)"/></clipPath><clipPath id="clip-path-9"><rect class="cls-1" x="36.79" y="113.72" width="80.76" height="51.96" transform="translate(-76.18 95.48) rotate(-45)"/></clipPath></defs><line class="cls-2" x1="130.36" y1="131.5" x2="130.36" y2="480.5"/><path class="cls-3" d="M157.86,29c0,15.46-13.53,101-29,101s-27-85.54-27-101a28,28,0,1,1,56,0Z"/><path class="cls-3" d="M29,101.87c15.46,0,101,13.53,101,29s-85.54,27-101,27a28,28,0,0,1,0-56Z"/><path class="cls-3" d="M80,38c10.94,10.94,61.85,81,50.92,91.93S51.33,88.51,40.4,77.57A28,28,0,0,1,80,38Z"/><path class="cls-3" d="M101.88,230.92c0-15.46,13.54-101,29-101s27,85.54,27,101a28,28,0,1,1-56,0Z"/><path class="cls-3" d="M38,179.93C48.93,169,119,118.08,129.91,129s-41.39,79.58-52.32,90.51A28,28,0,1,1,38,179.93Z"/><path class="cls-3" d="M102.51,231.13c0-15.47,13.53-101,29-101s27,85.53,27,101a28,28,0,0,1-56,0Z"/><path class="cls-3" d="M231.37,158.26c-15.46,0-101-13.54-101-29s85.54-27,101-27a28,28,0,1,1,0,56Z"/><path class="cls-3" d="M180.38,222.15c-10.94-10.93-61.85-81-50.91-91.92S209,171.62,220,182.55a28,28,0,1,1-39.6,39.6Z"/><path class="cls-3" d="M222.38,80.2c-10.93,10.94-81,61.85-91.92,50.91s41.39-79.57,52.32-90.51a28,28,0,0,1,39.6,39.6Z"/><circle class="cls-4" cx="128.86" cy="127" r="32"/><path class="cls-5" d="M117.16,277.7c10.94,10.94,20.14,36.87,9.2,47.8s-37.86,2.73-48.79-8.2-32.21-67.8-32.21-67.8S106.23,266.77,117.16,277.7Z"/><path class="cls-5" d="M117.16,387.7c10.94,10.94,20.14,36.87,9.2,47.8s-37.86,2.73-48.79-8.2-32.21-67.8-32.21-67.8S106.23,376.77,117.16,387.7Z"/><path class="cls-5" d="M143.1,326.74c-10.93,10.94-20.13,36.87-9.2,47.8s37.87,2.74,48.8-8.2,32.2-67.8,32.2-67.8S154,315.81,143.1,326.74Z"/><path class="cls-6" d="M157.86,29c0,15.46-13.53,101-29,101s-27-85.54-27-101a28,28,0,1,1,56,0Z"/><path class="cls-6" d="M29,101.87c15.46,0,101,13.53,101,29s-85.54,27-101,27a28,28,0,0,1,0-56Z"/><path class="cls-6" d="M80,38c10.94,10.94,61.85,81,50.92,91.93S51.33,88.51,40.4,77.57A28,28,0,0,1,80,38Z"/><path class="cls-7" d="M101.88,230.92c0-15.46,13.54-101,29-101s27,85.54,27,101a28,28,0,1,1-56,0Z"/><path class="cls-6" d="M38,179.93C48.93,169,119,118.08,129.91,129s-41.39,79.58-52.32,90.51A28,28,0,1,1,38,179.93Z"/><path class="cls-6" d="M102.51,231.13c0-15.47,13.53-101,29-101s27,85.53,27,101a28,28,0,0,1-56,0Z"/><path class="cls-6" d="M231.37,158.26c-15.46,0-101-13.54-101-29s85.54-27,101-27a28,28,0,1,1,0,56Z"/><path class="cls-6" d="M180.38,222.15c-10.94-10.93-61.85-81-50.91-91.92S209,171.62,220,182.55a28,28,0,1,1-39.6,39.6Z"/><path class="cls-6" d="M222.38,80.2c-10.93,10.94-81,61.85-91.92,50.91s41.39-79.57,52.32-90.51a28,28,0,0,1,39.6,39.6Z"/><circle class="cls-8" cx="128.86" cy="127" r="32"/><circle class="cls-9" cx="128.86" cy="127" r="32"/><g id="Artwork_5" data-name="Artwork 5"><g class="cls-10"><g class="cls-10"><g class="cls-10"><line class="cls-11" x1="134.59" y1="108.69" x2="143.68" y2="90.33"/><line class="cls-11" x1="147.38" y1="121.45" x2="165.73" y2="112.36"/><path class="cls-12" d="M149,135.79c-3.93,3.93-13.57.67-21.53-7.29s-11.22-17.59-7.28-21.52,13.56-.67,21.52,7.29S153,131.86,149,135.79"/><path class="cls-13" d="M136.76,148.05c-5.69,5.68-16.74,3.84-24.7-4.11s-9.8-19-4.12-24.7,16.74-3.84,24.7,4.12,9.8,19,4.12,24.69"/><path class="cls-14" d="M111.46,173.35c-14,14-31.75,18.84-39.7,10.89s-3.08-25.73,10.89-39.7,31.74-18.85,39.7-10.89,3.08,25.73-10.89,39.7"/></g><g class="cls-15"><line class="cls-16" x1="99.8" y1="118.13" x2="135.13" y2="153.45"/><line class="cls-16" x1="93.11" y1="124.81" x2="128.44" y2="160.14"/><line class="cls-16" x1="86.42" y1="131.5" x2="121.75" y2="166.83"/><line class="cls-16" x1="79.73" y1="138.19" x2="115.06" y2="173.52"/><line class="cls-16" x1="73.04" y1="144.88" x2="108.37" y2="180.21"/><line class="cls-16" x1="66.35" y1="151.57" x2="101.68" y2="186.9"/><line class="cls-16" x1="59.67" y1="158.26" x2="95" y2="193.59"/><line class="cls-16" x1="52.98" y1="164.94" x2="88.31" y2="200.27"/></g><g class="cls-10"><g class="cls-17"><g class="cls-18"><path class="cls-19" d="M133.84,139.27l-.51,70.7s1,5.66-6.69,9.77C117,224.91,89.08,204,98.17,186s28.3-54,28.3-54Z"/></g></g><g class="cls-17"><g class="cls-20"><path class="cls-19" d="M133.84,139.27l-16.88,73s-1.47,8-8.79,8.48c-11.3.81-34.68-23.76-21.74-40.07s40-48.74,40-48.74Z"/></g></g><g class="cls-17"><g class="cls-21"><path class="cls-19" d="M116.77,122.2,46,122.66s-5.66-1-9.78,6.69C31.08,139,52,166.91,70,157.82s54-28.3,54-28.3Z"/></g></g><g class="cls-17"><g class="cls-22"><path class="cls-19" d="M116.77,122.2,43.9,139s-8,1.48-8.49,8.8c-.81,11.3,23.77,34.67,40.07,21.74s48.61-40,48.61-40Z"/></g></g></g></g></g></g></svg>