<svg id="Layer_1" data-name="Layer 1" xmlns="http://www.w3.org/2000/svg" xmlns:xlink="http://www.w3.org/1999/xlink" viewBox="0 0 621.96 714.95"><defs><style>.cls-1,.cls-10,.cls-14,.cls-15,.cls-3,.cls-6{fill:none;}.cls-2{fill:#e3e5ca;}.cls-2,.cls-3,.cls-5{stroke:#9a9b81;}.cls-10,.cls-14,.cls-15,.cls-2,.cls-3,.cls-4,.cls-5,.cls-6{stroke-miterlimit:10;}.cls-2,.cls-3,.cls-4,.cls-5{stroke-width:4px;}.cls-4{fill:#7c7c6a;stroke:#7c7c6a;}.cls-5{fill:#9a9b81;}.cls-6{stroke:#42210b;stroke-width:0.38px;}.cls-7{fill:#c1b861;}.cls-8{fill:#5b542a;}.cls-9{clip-path:url(#clip-path);}.cls-10{stroke:#f9c623;stroke-width:1.89px;}.cls-11{fill:#9b914b;}.cls-12{fill:#abe7ef;opacity:0.36;}.cls-13{fill:#42210b;}.cls-14,.cls-15{stroke:#365a84;}.cls-15{stroke-dasharray:4.01 2.01;}</style><clipPath id="clip-path" transform="translate(-0.29 -0.33)"><ellipse class="cls-1" cx="185.46" cy="150.75" rx="18.61" ry="10.6"/></clipPath></defs><polygon class="cls-2" points="619.96 675.95 186.96 675.95 186.96 242.95 403.46 123.95 619.96 242.95 619.96 675.95"/><line class="cls-3" x1="186.71" y1="242.95" x2="619.71" y2="242.95"/><line class="cls-3" x1="243.71" y1="211.95" x2="563.71" y2="211.95"/><line class="cls-3" x1="299.71" y1="180.95" x2="509.71" y2="180.95"/><line class="cls-3" x1="355.71" y1="149.95" x2="450.71" y2="149.95"/><line class="cls-3" x1="186.71" y1="273.95" x2="619.71" y2="273.95"/><line class="cls-3" x1="186.71" y1="304.95" x2="619.71" y2="304.95"/><line class="cls-3" x1="186.71" y1="335.95" x2="619.71" y2="335.95"/><line class="cls-3" x1="186.71" y1="366.95" x2="619.71" y2="366.95"/><line class="cls-3" x1="186.71" y1="397.95" x2="619.71" y2="397.95"/><line class="cls-3" x1="186.71" y1="428.95" x2="619.71" y2="428.95"/><line class="cls-3" x1="186.71" y1="459.95" x2="619.71" y2="459.95"/><line class="cls-3" x1="186.71" y1="490.95" x2="619.71" y2="490.95"/><line class="cls-3" x1="186.71" y1="521.95" x2="619.71" y2="521.95"/><line class="cls-3" x1="186.71" y1="552.95" x2="619.71" y2="552.95"/><line class="cls-3" x1="186.71" y1="583.95" x2="619.71" y2="583.95"/><line class="cls-3" x1="186.71" y1="614.95" x2="619.71" y2="614.95"/><line class="cls-3" x1="186.71" y1="645.95" x2="619.71" y2="645.95"/><circle class="cls-4" cx="403.71" cy="180.95" r="19"/><rect class="cls-5" x="186.71" y="675.95" width="37" height="37"/><rect class="cls-5" x="582.71" y="675.95" width="37" height="37"/><line class="cls-6" x1="215.27" y1="146.14" x2="218.89" y2="136.13"/><path class="cls-7" d="M213.09,158.33c-3.6,0-6.51-3.4-6.51-7.58s2.91-7.58,6.51-7.58,6.5,3.39,6.5,7.58c0,2.21-1.1,6.93-2.39,8.31S214.78,158.33,213.09,158.33Z" transform="translate(-0.29 -0.33)"/><ellipse class="cls-8" cx="185.17" cy="150.42" rx="18.61" ry="10.6"/><g class="cls-9"><line class="cls-10" x1="201.19" y1="136.42" x2="201.19" y2="162.4"/><line class="cls-10" x1="196.27" y1="136.42" x2="196.27" y2="162.4"/><line class="cls-10" x1="191.35" y1="136.42" x2="191.35" y2="162.4"/><line class="cls-10" x1="186.43" y1="136.42" x2="186.43" y2="162.4"/><line class="cls-10" x1="181.51" y1="136.42" x2="181.51" y2="162.4"/><line class="cls-10" x1="176.59" y1="136.42" x2="176.59" y2="162.4"/><line class="cls-10" x1="171.67" y1="136.42" x2="171.67" y2="162.4"/><line class="cls-10" x1="166.75" y1="136.42" x2="166.75" y2="162.4"/></g><line class="cls-6" x1="214.71" y1="145.9" x2="216.09" y2="135.34"/><ellipse class="cls-11" cx="204.79" cy="150.42" rx="5.29" ry="6.95"/><path class="cls-12" d="M203.35,144.79l-19.22-31.38s-1.06-2.8-5.61-2.56c-5.7.31-12.48,17.12-3.6,22.7S202.05,150,202.05,150Z" transform="translate(-0.29 -0.33)"/><path class="cls-12" d="M203.35,144.79l-27.08-27.93s-2.79-3.15-6.2-1.42c-5.25,2.68-9,19.91,1.09,23.69S202.06,150,202.06,150Z" transform="translate(-0.29 -0.33)"/><path class="cls-13" d="M188.54,153.89c2.65,5.11,2,12.18-2,16.42l-.08-.06a27,27,0,0,0,2.49-8c.48-2.78,0-5.7-.36-8.38Z" transform="translate(-0.29 -0.33)"/><path class="cls-13" d="M180.56,154.35c.28,5.75-3.3,11.89-8.71,14.07l0-.09a27,27,0,0,0,5.59-6.22c1.69-2.53,2.32-5,3.17-7.76Z" transform="translate(-0.29 -0.33)"/><path class="cls-13" d="M195.6,153.25c2.66,5.12,2,12.19-2,16.43l-.08-.06a27,27,0,0,0,2.48-8c.48-2.78,0-5.7-.36-8.39Z" transform="translate(-0.29 -0.33)"/><path class="cls-14" d="M.5.78l1.8.87" transform="translate(-0.29 -0.33)"/><path class="cls-15" d="M4.09,2.55c20.57,10.52,121,67.13,72.41,147.23-17.74,29.25-54,2-38-22,11.7-17.55,46-19,67,14,20.44,32.12,44.9,19.83,52.58,14.76" transform="translate(-0.29 -0.33)"/><path class="cls-14" d="M158.9,156c1-.72,1.6-1.2,1.6-1.2" transform="translate(-0.29 -0.33)"/></svg>