<svg id="Layer_1" data-name="Layer 1" xmlns="http://www.w3.org/2000/svg" xmlns:xlink="http://www.w3.org/1999/xlink" viewBox="0 0 514.63 471.4"><defs><style>.cls-1,.cls-2,.cls-6{fill:none;}.cls-2{stroke:#42210b;stroke-width:3px;}.cls-2,.cls-6{stroke-miterlimit:10;}.cls-3{fill:#c1b861;}.cls-4{fill:#5b542a;}.cls-5{clip-path:url(#clip-path);}.cls-6{stroke:#f9c623;stroke-width:15px;}.cls-7{fill:#9b914b;}.cls-8{fill:#abe7ef;opacity:0.36;}.cls-9{fill:#42210b;}.cls-10{fill:#fcdf65;}</style><clipPath id="clip-path" transform="translate(0 0)"><ellipse class="cls-1" cx="244.07" cy="316.34" rx="147.5" ry="84"/></clipPath></defs><line class="cls-2" x1="482.68" y1="282.46" x2="511.4" y2="203.06"/><path class="cls-3" d="M463.07,376.43c-28.47,0-51.56-26.9-51.56-60.09s23.09-60.1,51.56-60.1,51.56,26.91,51.56,60.1c0,17.54-8.7,54.91-19,65.9C486.46,392,476.49,376.43,463.07,376.43Z" transform="translate(0 0)"/><ellipse class="cls-4" cx="244.07" cy="316.34" rx="147.5" ry="84"/><g class="cls-5"><line class="cls-6" x1="371.07" y1="205.34" x2="371.07" y2="411.34"/><line class="cls-6" x1="332.07" y1="205.34" x2="332.07" y2="411.34"/><line class="cls-6" x1="293.07" y1="205.34" x2="293.07" y2="411.34"/><line class="cls-6" x1="254.07" y1="205.34" x2="254.07" y2="411.34"/><line class="cls-6" x1="215.07" y1="205.34" x2="215.07" y2="411.34"/><line class="cls-6" x1="176.07" y1="205.34" x2="176.07" y2="411.34"/><line class="cls-6" x1="137.07" y1="205.34" x2="137.07" y2="411.34"/><line class="cls-6" x1="98.07" y1="205.34" x2="98.07" y2="411.34"/></g><line class="cls-2" x1="478.2" y1="280.55" x2="489.18" y2="196.83"/><ellipse class="cls-7" cx="399.57" cy="316.34" rx="41.94" ry="55.1"/><path class="cls-8" d="M385.89,269.09,233.53,20.38S225.11-1.8,189.1.12c-45.22,2.4-99,135.71-28.52,179.91s215,130.41,215,130.41Z" transform="translate(0 0)"/><path class="cls-8" d="M385.89,269.09,171.26,47.72s-22.17-25-49.13-11.22c-41.62,21.22-71.78,157.75,8.62,187.77s244.89,86.27,244.89,86.27Z" transform="translate(0 0)"/><path class="cls-9" d="M268.49,341.21c20,38.5,15.95,89.16-10.49,123.7-1.86,2.22-3.77,4.4-5.72,6.49l-.64-.44c2.3-5.21,4.61-10.32,6.79-15.52,10.26-25.62,15.81-53.08,14.15-80.75a197.62,197.62,0,0,0-4.82-33.21l.73-.27Z" transform="translate(0 0)"/><path class="cls-9" d="M205.28,344.86c2.07,43.32-22.73,87.68-61.19,108-2.62,1.24-5.25,2.42-7.91,3.51l-.39-.67c4.26-3.77,8.5-7.45,12.64-11.26,20-19,36.54-41.63,46.58-67.47a196.16,196.16,0,0,0,9.49-32.18l.78.05Z" transform="translate(0 0)"/><path class="cls-9" d="M324.49,336.21c20,38.5,15.95,89.16-10.49,123.7-1.86,2.22-3.77,4.4-5.73,6.49l-.63-.44c2.3-5.21,4.61-10.32,6.79-15.52,10.26-25.62,15.81-53.08,14.15-80.75a197.62,197.62,0,0,0-4.82-33.21l.73-.27Z" transform="translate(0 0)"/><path class="cls-10" d="M228.48,383.44a16.4,16.4,0,0,0-4-5.86,29.27,29.27,0,0,0-5.78-3.89,31.33,31.33,0,0,1-6-4c-1.79-1.62-3.38-3.45-5.21-5-3.92-3.37-8.59-4.53-13.69-4.43a58.71,58.71,0,0,0-15,2,26.61,26.61,0,0,0-4.56,1.78,21.47,21.47,0,0,0-10.54,4.71,55.76,55.76,0,0,0-5.4,4.9,29.39,29.39,0,0,0-4.57,5.39c-2.49,4.23-1,9-2.17,13.46-.66,2.5-2.55,3.95-4.53,5.45s-4.08,3.22-6,5a64.43,64.43,0,0,0-10.2,11.67c-2.85,4.38-2.53,9.3-.05,13.78a37,37,0,0,0,4.6,6.13,69.58,69.58,0,0,1,4.94,6.41c2.64,3.91,5.62,7.22,10,9.16,8.42,3.7,17.8,2.19,25.92-1.51a187.72,187.72,0,0,0,28.38-16.42q6.6-4.53,12.84-9.57c3.91-3.15,7.87-6.49,10.31-11a29.15,29.15,0,0,0,3.25-14.05A37.35,37.35,0,0,0,228.48,383.44Z" transform="translate(0 0)"/><path class="cls-10" d="M103.79,391a1,1,0,0,0-.52-.34s0,0,0,0a4,4,0,0,0-1.51-1.48,3.72,3.72,0,0,0-2.45-.38,4.55,4.55,0,0,0-3.32,3,4.87,4.87,0,0,0,4.67,6.29,4.27,4.27,0,0,0,3.63-2.5,4.56,4.56,0,0,0,.47-2.18A4.1,4.1,0,0,0,103.79,391Z" transform="translate(0 0)"/><path class="cls-10" d="M72.32,362.22a1.5,1.5,0,0,0,0,3A1.5,1.5,0,0,0,72.32,362.22Z" transform="translate(0 0)"/><path class="cls-10" d="M53.15,387.14a1.5,1.5,0,0,0,0,3A1.5,1.5,0,0,0,53.15,387.14Z" transform="translate(0 0)"/><path class="cls-10" d="M76.15,421a1.5,1.5,0,0,0,0,3A1.5,1.5,0,0,0,76.15,421Z" transform="translate(0 0)"/><path class="cls-10" d="M35.82,414a1.67,1.67,0,0,0-.38-.42v-1a1.61,1.61,0,0,0-.44-1.1,4.47,4.47,0,0,0-.41-.32,2.92,2.92,0,0,0-.9-.4,3.82,3.82,0,0,0-3.63,1.12,3.43,3.43,0,0,0-.91,1.68,3.16,3.16,0,0,0,.36,2.21,3.61,3.61,0,0,0,3.1,1.66,3.88,3.88,0,0,0,1.92-.48A3.29,3.29,0,0,0,36,415.2,1.56,1.56,0,0,0,35.82,414Z" transform="translate(0 0)"/><path class="cls-10" d="M10.77,362.83a3.62,3.62,0,0,0-.06-.46,3,3,0,0,0-.2-.51l-.08-.15a2.79,2.79,0,0,0-.34-.43,2.19,2.19,0,0,0-.57-.43,2.22,2.22,0,0,0-.66-.26,2.45,2.45,0,0,0-1.11,0l-.07,0c-.14.05-.28.12-.41.18l-.08,0a3.92,3.92,0,0,0-.32.25.8.8,0,0,0-.25.34,2.85,2.85,0,0,0-.2.51c0,.1,0,.19,0,.28a.28.28,0,0,1,0,.09l0,.06a1.47,1.47,0,0,0-.15,1.16,2.23,2.23,0,0,0,.52.89,2,2,0,0,0,.52.4l.48.2.15,0,.41.05h0a2.91,2.91,0,0,0,.58.09.81.81,0,0,0,.22,0,1.17,1.17,0,0,0,.58-.13,1.36,1.36,0,0,0,.79-.79,1.23,1.23,0,0,0,.12-.5,1.89,1.89,0,0,0,.11-.25s0-.05,0-.07a2.7,2.7,0,0,0,0-.28c0-.09,0-.19,0-.28S10.77,362.85,10.77,362.83Z" transform="translate(0 0)"/><path class="cls-10" d="M5.36,392.7a1.57,1.57,0,0,0-.69-.89,1.47,1.47,0,0,0-1.16-.15l-.14,0a2.63,2.63,0,0,0-2.06.32,2.84,2.84,0,0,0-1,1A2.39,2.39,0,0,0,0,394.34a1.58,1.58,0,0,0,.43,1.06l.31.24a1.51,1.51,0,0,0,.76.2,3.72,3.72,0,0,0,2.14-.46,3.87,3.87,0,0,0,1.56-1.52A1.61,1.61,0,0,0,5.36,392.7Z" transform="translate(0 0)"/><path class="cls-10" d="M134.88,389.42a1.46,1.46,0,0,0,.15-1.15,2,2,0,0,0-.27-.58,2.52,2.52,0,0,0-.69-.69,2.39,2.39,0,0,0-.58-.28,1.17,1.17,0,0,0-.25-.07,2.9,2.9,0,0,0-.66-.07,3.72,3.72,0,0,0-.65.08,3.28,3.28,0,0,0-.59.23,1,1,0,0,0-.24.14,2.79,2.79,0,0,0-.38.3,1.57,1.57,0,0,0-.2.25,2.13,2.13,0,0,0-.39.71,2.25,2.25,0,0,0,0,1.31,2.72,2.72,0,0,0,.19.47.54.54,0,0,0,.07.13c.09.14.2.27.3.4l.1.11a3.13,3.13,0,0,0,1.12.67,2.85,2.85,0,0,0,.7.12,2.76,2.76,0,0,0,.7-.06l.15,0a5.16,5.16,0,0,0,.49-.21,4.4,4.4,0,0,0,.41-.31l.13-.12a1.21,1.21,0,0,0,.31-.49,1.25,1.25,0,0,0,.13-.57,1.43,1.43,0,0,0,0-.29Z" transform="translate(0 0)"/><path class="cls-10" d="M117.18,346.69a1,1,0,0,0-.27-.51,1,1,0,0,0-.42-.39l-.35-.15a1.55,1.55,0,0,0-.8,0l-.2.08-.22-.08a1.22,1.22,0,0,0-.6,0,1.16,1.16,0,0,0-.56.18l-.3.24a1.53,1.53,0,0,0-.39.66l0,.4a1.48,1.48,0,0,0,.21.76l0,0,.25.33a.46.46,0,0,1,.07.07,2.36,2.36,0,0,0,.44.32,2.4,2.4,0,0,0,1.11.28,2.69,2.69,0,0,0,.57-.07,2.25,2.25,0,0,0,.53-.21l.08,0,0,0c.11-.09.23-.17.33-.26a1.89,1.89,0,0,0,.35-.44,1.12,1.12,0,0,0,.18-.56A1.08,1.08,0,0,0,117.18,346.69Z" transform="translate(0 0)"/><path class="cls-10" d="M106.19,357.11a1.5,1.5,0,0,0,0,3A1.5,1.5,0,0,0,106.19,357.11Z" transform="translate(0 0)"/><path class="cls-10" d="M51.23,328.35a1.5,1.5,0,0,0,0,3A1.5,1.5,0,0,0,51.23,328.35Z" transform="translate(0 0)"/><path class="cls-10" d="M49.32,357.75h0a1.36,1.36,0,0,0-1.36.95,1.76,1.76,0,0,0-.07.27,1.46,1.46,0,0,0,1.43,1.78h0A1.5,1.5,0,0,0,49.32,357.75Z" transform="translate(0 0)"/><path class="cls-10" d="M22.48,440.81a1.5,1.5,0,0,0,0,3A1.5,1.5,0,0,0,22.48,440.81Z" transform="translate(0 0)"/><path class="cls-10" d="M126,440.17a1.5,1.5,0,0,0,0,3A1.5,1.5,0,0,0,126,440.17Z" transform="translate(0 0)"/></svg>