<svg id="Layer_1" data-name="Layer 1" xmlns="http://www.w3.org/2000/svg" viewBox="0 0 260.37 260.13"><defs><style>.cls-1{fill:#e298b6;stroke:#dd72a2;}.cls-1,.cls-2,.cls-3,.cls-4{stroke-miterlimit:10;}.cls-1,.cls-2{stroke-width:2px;}.cls-2{fill:#ff7bac;stroke:#ce4db3;}.cls-3{fill:#f9c623;stroke:#c4971c;}.cls-4{fill:#ecab49;stroke:#ecab49;}</style></defs><path class="cls-1" d="M157.86,29c0,15.46-13.53,101-29,101s-27-85.54-27-101a28,28,0,1,1,56,0Z"/><path class="cls-1" d="M29,101.87c15.46,0,101,13.53,101,29s-85.54,27-101,27a28,28,0,0,1,0-56Z"/><path class="cls-1" d="M80,38c10.94,10.94,61.85,81,50.92,91.93S51.33,88.51,40.4,77.57A28,28,0,0,1,80,38Z"/><path class="cls-2" d="M101.88,230.92c0-15.46,13.54-101,29-101s27,85.54,27,101a28,28,0,1,1-56,0Z"/><path class="cls-1" d="M38,179.93C48.93,169,119,118.08,129.91,129s-41.39,79.58-52.32,90.51A28,28,0,1,1,38,179.93Z"/><path class="cls-1" d="M102.51,231.13c0-15.47,13.53-101,29-101s27,85.53,27,101a28,28,0,0,1-56,0Z"/><path class="cls-1" d="M231.37,158.26c-15.46,0-101-13.54-101-29s85.54-27,101-27a28,28,0,1,1,0,56Z"/><path class="cls-1" d="M180.38,222.15c-10.94-10.93-61.85-81-50.91-91.92S209,171.62,220,182.55a28,28,0,1,1-39.6,39.6Z"/><path class="cls-1" d="M222.38,80.2c-10.93,10.94-81,61.85-91.92,50.91s41.39-79.57,52.32-90.51a28,28,0,0,1,39.6,39.6Z"/><circle class="cls-3" cx="128.86" cy="127" r="32"/><circle class="cls-4" cx="128.86" cy="127" r="32"/></svg>